<?xml version="1.0" standalone="no"?>
<!DOCTYPE svg PUBLIC "-//W3C//DTD SVG 20010904//EN"
 "http://www.w3.org/TR/2001/REC-SVG-20010904/DTD/svg10.dtd">
<svg version="1.0" xmlns="http://www.w3.org/2000/svg"
 width="96.000000pt" height="96.000000pt" viewBox="0 0 96.000000 96.000000"
 preserveAspectRatio="xMidYMid meet">

<g transform="translate(0.000000,96.000000) scale(0.100000,-0.100000)"
fill="#000000" stroke="none">
<path d="M382 930 c-18 -11 -41 -34 -52 -52 -18 -30 -22 -32 -69 -29 -65 3
-115 -21 -148 -70 -22 -34 -25 -47 -21 -100 4 -61 4 -63 -33 -96 -79 -72 -68
-197 23 -253 30 -18 32 -22 29 -75 -5 -107 68 -172 179 -162 52 4 59 3 70 -18
19 -35 81 -65 136 -65 58 0 106 26 134 72 18 30 22 32 72 29 42 -2 61 3 87 21
60 41 76 71 76 148 0 63 2 70 28 90 82 64 75 198 -13 258 -32 21 -33 26 -31
75 3 61 -22 106 -79 145 -30 21 -44 23 -97 19 -57 -4 -63 -3 -78 20 -41 62
-146 83 -213 43z m296 -323 l43 -43 -157 -145 c-86 -79 -162 -144 -168 -144
-19 0 -176 148 -176 165 0 15 61 70 79 70 5 0 28 -16 51 -35 23 -19 45 -35 48
-35 4 0 57 47 117 105 61 57 112 104 115 105 3 0 25 -19 48 -43z"/>
</g>
</svg>
